<?xml version='1.0' encoding='UTF-8' standalone='no'?>
<svg xmlns="http://www.w3.org/2000/svg" gorn="0" version="1.1" width="109.84251" xml:space="preserve" enable-background="new -66.38 -5.38 99 144" height="205.51181"  xmlns:xml="http://www.w3.org/XML/1998/namespace" id="Layer_1" viewBox="0 0 109.84254 205.51182" x="0" y="0">
    <metadata id="metadata149"/>
    <defs id="defs147"/>
    <desc id="desc3">
        <referenceFile id="referenceFile6">NodeMCUPCBNew.svg</referenceFile>
    </desc>
    <g transform="translate(68.533999,26.285479)">
        <g id="g5">
            <g id="g7">
                <g id="g9">
                    <g id="g11">
                        <g id="g13">
                            <g id="g15">
                                <g id="g17">
                                    <g id="g19">
                                        <g id="g21">
                                            <metadata id="metadata51">
                                                <rdf:RDF xmlns:rdf="http://www.w3.org/1999/02/22-rdf-syntax-ns#">
                                                    <cc:Work rdf:about="" xmlns:cc="http://creativecommons.org/ns#" xmlns:rdf="http://www.w3.org/1999/02/22-rdf-syntax-ns#">
                                                        <dc:format xmlns:dc="http://purl.org/dc/elements/1.1/">image/svg+xml</dc:format>
                                                        <dc:type rdf:resource="http://purl.org/dc/dcmitype/StillImage" xmlns:dc="http://purl.org/dc/elements/1.1/" xmlns:rdf="http://www.w3.org/1999/02/22-rdf-syntax-ns#"/>
                                                        <dc:title xmlns:dc="http://purl.org/dc/elements/1.1/"/>
                                                    </cc:Work>
                                                </rdf:RDF>
                                            </metadata>
                                            <defs id="defs49"/>
                                            <g transform="matrix(0.95516884,0,0,1.2395352,-6.4383757,-0.98001028)">
                                                <g id="g25">
                                                    <g id="g27">
                                                        <g id="g29">
                                                            <g id="g31">
                                                                <g id="g33">
                                                                    <g id="g35">
                                                                        <g id="g37">
                                                                            <g id="g39">
                                                                                <g gorn="0.1.0.0.0.0.0.0.0.0.2.0.0.0.0.0.0.0.0" id="silkscreen">
                                                                                    <rect style="stroke-miterlimit:4;stroke-dasharray:none" stroke-width="0.74897486" width="114.14424" stroke="#000000" stroke-opacity="1" fill="none" height="165.13959" id="rect3076" x="-64.583496" y="-20.086111"/>
                                                                                </g>
                                                                            </g>
                                                                        </g>
                                                                    </g>
                                                                </g>
                                                            </g>
                                                        </g>
                                                    </g>
                                                </g>
                                            </g>
                                            <g transform="matrix(0.99705383,0,0,0.99847198,-6.8549812,12.657221)">
                                                <g id="g46">
                                                    <g id="g48">
                                                        <g id="g50">
                                                            <g id="g52">
                                                                <g id="g54">
                                                                    <g id="g56">
                                                                        <g id="g58">
                                                                            <g id="g60">
                                                                                <g gorn="0.1.0.0.0.0.0.0.0.0.3.0.0.0.0.0.0.0.0" id="copper0">
                                                                                    <g transform="translate(-0.6282461,-1.1251307)">
                                                                                        <g gorn="0.1.0.0.0.0.0.0.0.0.3.0.0.0.0.0.0.0.0.0" id="copper1">
                                                                                            <g transform="translate(0.21091717,0)">
                                                                                                <circle cx="43.286144" cy="20.035999" gorn="0.1.0.0.0.0.0.0.0.0.3.0.0.0.0.0.0.0.0.0.0" stroke-width="1.79998505" stroke="#ffbf00" r="2.6099782" fill="none" d="m 45.896122,20.035999 c 0,1.441451 -1.168527,2.609978 -2.609978,2.609978 -1.441451,0 -2.609978,-1.168527 -2.609978,-2.609978 0,-1.441451 1.168527,-2.609978 2.609978,-2.609978 1.441451,0 2.609978,1.168527 2.609978,2.609978 z" id="connector2pad"/>
                                                                                            </g>
                                                                                            <circle cx="-55.796001" cy="2.036" gorn="0.1.0.0.0.0.0.0.0.0.3.0.0.0.0.0.0.0.0.0.1" stroke-width="1.79998505" stroke="#ffbf00" r="2.6099782" fill="none" d="m -53.186023,2.036 c 0,1.4414512 -1.168527,2.6099782 -2.609978,2.6099782 -1.441452,0 -2.609979,-1.168527 -2.609979,-2.6099782 0,-1.44145114 1.168527,-2.60997819 2.609979,-2.60997819 1.441451,0 2.609978,1.16852705 2.609978,2.60997819 z" id="connector42pin"/>
                                                                                            <circle cx="-55.796001" cy="11.036" gorn="0.1.0.0.0.0.0.0.0.0.3.0.0.0.0.0.0.0.0.0.2" stroke-width="1.79998505" stroke="#ffbf00" r="2.6099782" fill="none" d="m -53.186023,11.036 c 0,1.441451 -1.168527,2.609978 -2.609978,2.609978 -1.441452,0 -2.609979,-1.168527 -2.609979,-2.609978 0,-1.4414509 1.168527,-2.6099779 2.609979,-2.6099779 1.441451,0 2.609978,1.168527 2.609978,2.6099779 z" id="connector41pin"/>
                                                                                            <circle cx="-55.796001" cy="20.035999" gorn="0.1.0.0.0.0.0.0.0.0.3.0.0.0.0.0.0.0.0.0.3" stroke-width="1.79998505" stroke="#ffbf00" r="2.6099782" fill="none" d="m -53.186023,20.035999 c 0,1.441451 -1.168527,2.609978 -2.609978,2.609978 -1.441452,0 -2.609979,-1.168527 -2.609979,-2.609978 0,-1.441451 1.168527,-2.609978 2.609979,-2.609978 1.441451,0 2.609978,1.168527 2.609978,2.609978 z" id="connector40pin"/>
                                                                                            <circle cx="-55.796001" cy="29.035999" gorn="0.1.0.0.0.0.0.0.0.0.3.0.0.0.0.0.0.0.0.0.4" stroke-width="1.79998505" stroke="#ffbf00" r="2.6099782" fill="none" d="m -53.186023,29.035999 c 0,1.441451 -1.168527,2.609978 -2.609978,2.609978 -1.441452,0 -2.609979,-1.168527 -2.609979,-2.609978 0,-1.441451 1.168527,-2.609978 2.609979,-2.609978 1.441451,0 2.609978,1.168527 2.609978,2.609978 z" id="connector39pin"/>
                                                                                            <circle cx="-55.796001" cy="38.035999" gorn="0.1.0.0.0.0.0.0.0.0.3.0.0.0.0.0.0.0.0.0.5" stroke-width="1.79998505" stroke="#ffbf00" r="2.6099782" fill="none" d="m -53.186023,38.035999 c 0,1.441451 -1.168527,2.609978 -2.609978,2.609978 -1.441452,0 -2.609979,-1.168527 -2.609979,-2.609978 0,-1.441451 1.168527,-2.609978 2.609979,-2.609978 1.441451,0 2.609978,1.168527 2.609978,2.609978 z" id="connector38pin"/>
                                                                                            <g transform="translate(0.21091717,0)">
                                                                                                <circle cx="43.286144" cy="11.036" gorn="0.1.0.0.0.0.0.0.0.0.3.0.0.0.0.0.0.0.0.0.6" stroke-width="1.79998505" stroke="#ffbf00" r="2.6099782" fill="none" d="m 45.896122,11.036 c 0,1.441451 -1.168527,2.609978 -2.609978,2.609978 -1.441451,0 -2.609978,-1.168527 -2.609978,-2.609978 0,-1.4414509 1.168527,-2.6099779 2.609978,-2.6099779 1.441451,0 2.609978,1.168527 2.609978,2.6099779 z" id="connector1pad"/>
                                                                                            </g>
                                                                                            <g transform="translate(0.21091717,0)">
                                                                                                <circle cx="43.286144" cy="2.036" gorn="0.1.0.0.0.0.0.0.0.0.3.0.0.0.0.0.0.0.0.0.7" stroke-width="1.79998505" stroke="#ffbf00" r="2.6099782" fill="none" d="m 45.896122,2.036 c 0,1.4414512 -1.168527,2.6099782 -2.609978,2.6099782 -1.441451,0 -2.609978,-1.168527 -2.609978,-2.6099782 0,-1.44145114 1.168527,-2.60997819 2.609978,-2.60997819 1.441451,0 2.609978,1.16852705 2.609978,2.60997819 z" id="connector0pad"/>
                                                                                            </g>
                                                                                            <g transform="translate(0.21091717,0)">
                                                                                                <circle cx="43.286144" cy="29.035999" gorn="0.1.0.0.0.0.0.0.0.0.3.0.0.0.0.0.0.0.0.0.8" stroke-width="1.79998505" stroke="#ffbf00" r="2.6099782" fill="none" d="m 45.896122,29.035999 c 0,1.441451 -1.168527,2.609978 -2.609978,2.609978 -1.441451,0 -2.609978,-1.168527 -2.609978,-2.609978 0,-1.441451 1.168527,-2.609978 2.609978,-2.609978 1.441451,0 2.609978,1.168527 2.609978,2.609978 z" id="connector3pad"/>
                                                                                            </g>
                                                                                            <circle cx="-55.796001" cy="47.035999" gorn="0.1.0.0.0.0.0.0.0.0.3.0.0.0.0.0.0.0.0.0.9" stroke-width="1.79998505" stroke="#ffbf00" r="2.6099782" fill="none" d="m -53.186023,47.035999 c 0,1.441451 -1.168527,2.609978 -2.609978,2.609978 -1.441452,0 -2.609979,-1.168527 -2.609979,-2.609978 0,-1.441451 1.168527,-2.609978 2.609979,-2.609978 1.441451,0 2.609978,1.168527 2.609978,2.609978 z" id="connector37pin"/>
                                                                                            <circle cx="-55.796001" cy="56.035999" gorn="0.1.0.0.0.0.0.0.0.0.3.0.0.0.0.0.0.0.0.0.10" stroke-width="1.79998505" stroke="#ffbf00" r="2.6099782" fill="none" d="m -53.186023,56.035999 c 0,1.441451 -1.168527,2.609978 -2.609978,2.609978 -1.441452,0 -2.609979,-1.168527 -2.609979,-2.609978 0,-1.441451 1.168527,-2.609978 2.609979,-2.609978 1.441451,0 2.609978,1.168527 2.609978,2.609978 z" id="connector36pin"/>
                                                                                            <circle cx="-55.796001" cy="65.036003" gorn="0.1.0.0.0.0.0.0.0.0.3.0.0.0.0.0.0.0.0.0.11" stroke-width="1.79998505" stroke="#ffbf00" r="2.6099782" fill="none" d="m -53.186023,65.036003 c 0,1.441451 -1.168527,2.609978 -2.609978,2.609978 -1.441452,0 -2.609979,-1.168527 -2.609979,-2.609978 0,-1.441451 1.168527,-2.609978 2.609979,-2.609978 1.441451,0 2.609978,1.168527 2.609978,2.609978 z" id="connector35pin"/>
                                                                                            <circle cx="-55.796001" cy="74.036003" gorn="0.1.0.0.0.0.0.0.0.0.3.0.0.0.0.0.0.0.0.0.12" stroke-width="1.79998505" stroke="#ffbf00" r="2.6099782" fill="none" d="m -53.186023,74.036003 c 0,1.441451 -1.168527,2.609978 -2.609978,2.609978 -1.441452,0 -2.609979,-1.168527 -2.609979,-2.609978 0,-1.441451 1.168527,-2.609978 2.609979,-2.609978 1.441451,0 2.609978,1.168527 2.609978,2.609978 z" id="connector34pin"/>
                                                                                            <circle cx="-55.796001" cy="83.036003" gorn="0.1.0.0.0.0.0.0.0.0.3.0.0.0.0.0.0.0.0.0.13" stroke-width="1.79998505" stroke="#ffbf00" r="2.6099782" fill="none" d="m -53.186023,83.036003 c 0,1.441451 -1.168527,2.609978 -2.609978,2.609978 -1.441452,0 -2.609979,-1.168527 -2.609979,-2.609978 0,-1.441451 1.168527,-2.609978 2.609979,-2.609978 1.441451,0 2.609978,1.168527 2.609978,2.609978 z" id="connector33pin"/>
                                                                                            <circle cx="-55.796001" cy="92.036003" gorn="0.1.0.0.0.0.0.0.0.0.3.0.0.0.0.0.0.0.0.0.14" stroke-width="1.79998505" stroke="#ffbf00" r="2.6099782" fill="none" d="m -53.186023,92.036003 c 0,1.441451 -1.168527,2.609978 -2.609978,2.609978 -1.441452,0 -2.609979,-1.168527 -2.609979,-2.609978 0,-1.441451 1.168527,-2.609978 2.609979,-2.609978 1.441451,0 2.609978,1.168527 2.609978,2.609978 z" id="connector19pad"/>
                                                                                            <circle cx="-55.796001" cy="101.036" gorn="0.1.0.0.0.0.0.0.0.0.3.0.0.0.0.0.0.0.0.0.15" stroke-width="1.79998505" stroke="#ffbf00" r="2.6099782" fill="none" d="m -53.186023,101.036 c 0,1.44145 -1.168527,2.60998 -2.609978,2.60998 -1.441452,0 -2.609979,-1.16853 -2.609979,-2.60998 0,-1.441448 1.168527,-2.609975 2.609979,-2.609975 1.441451,0 2.609978,1.168527 2.609978,2.609975 z" id="connector18pad"/>
                                                                                            <circle cx="-55.796001" cy="110.036" gorn="0.1.0.0.0.0.0.0.0.0.3.0.0.0.0.0.0.0.0.0.16" stroke-width="1.79998505" stroke="#ffbf00" r="2.6099782" fill="none" d="m -53.186023,110.036 c 0,1.44145 -1.168527,2.60998 -2.609978,2.60998 -1.441452,0 -2.609979,-1.16853 -2.609979,-2.60998 0,-1.44145 1.168527,-2.60998 2.609979,-2.60998 1.441451,0 2.609978,1.16853 2.609978,2.60998 z" id="connector17pad"/>
                                                                                            <circle cx="-55.796001" cy="119.036" gorn="0.1.0.0.0.0.0.0.0.0.3.0.0.0.0.0.0.0.0.0.17" stroke-width="1.79998505" stroke="#ffbf00" r="2.6099782" fill="none" d="m -53.186023,119.036 c 0,1.44145 -1.168527,2.60998 -2.609978,2.60998 -1.441452,0 -2.609979,-1.16853 -2.609979,-2.60998 0,-1.44145 1.168527,-2.60998 2.609979,-2.60998 1.441451,0 2.609978,1.16853 2.609978,2.60998 z" id="connector16pad"/>
                                                                                            <circle cx="-55.796001" cy="128.036" gorn="0.1.0.0.0.0.0.0.0.0.3.0.0.0.0.0.0.0.0.0.18" stroke-width="1.79998505" stroke="#ffbf00" r="2.6099782" fill="none" d="m -53.186023,128.036 c 0,1.44145 -1.168527,2.60997 -2.609978,2.60997 -1.441452,0 -2.609979,-1.16852 -2.609979,-2.60997 0,-1.44146 1.168527,-2.60998 2.609979,-2.60998 1.441451,0 2.609978,1.16852 2.609978,2.60998 z" id="connector15pad"/>
                                                                                            <g transform="translate(0.21091717,0)">
                                                                                                <circle cx="43.286144" cy="65.036003" gorn="0.1.0.0.0.0.0.0.0.0.3.0.0.0.0.0.0.0.0.0.19" stroke-width="1.79998505" stroke="#ffbf00" r="2.6099782" fill="none" d="m 45.896122,65.036003 c 0,1.441451 -1.168527,2.609978 -2.609978,2.609978 -1.441451,0 -2.609978,-1.168527 -2.609978,-2.609978 0,-1.441451 1.168527,-2.609978 2.609978,-2.609978 1.441451,0 2.609978,1.168527 2.609978,2.609978 z" id="connector7pad"/>
                                                                                            </g>
                                                                                            <g transform="translate(0.21091717,0)">
                                                                                                <circle cx="43.286144" cy="74.036003" gorn="0.1.0.0.0.0.0.0.0.0.3.0.0.0.0.0.0.0.0.0.20" stroke-width="1.79998505" stroke="#ffbf00" r="2.6099782" fill="none" d="m 45.896122,74.036003 c 0,1.441451 -1.168527,2.609978 -2.609978,2.609978 -1.441451,0 -2.609978,-1.168527 -2.609978,-2.609978 0,-1.441451 1.168527,-2.609978 2.609978,-2.609978 1.441451,0 2.609978,1.168527 2.609978,2.609978 z" id="connector8pad"/>
                                                                                            </g>
                                                                                            <g transform="translate(0.21091717,0)">
                                                                                                <circle cx="43.286144" cy="83.036003" gorn="0.1.0.0.0.0.0.0.0.0.3.0.0.0.0.0.0.0.0.0.21" stroke-width="1.79998505" stroke="#ffbf00" r="2.6099782" fill="none" d="m 45.896122,83.036003 c 0,1.441451 -1.168527,2.609978 -2.609978,2.609978 -1.441451,0 -2.609978,-1.168527 -2.609978,-2.609978 0,-1.441451 1.168527,-2.609978 2.609978,-2.609978 1.441451,0 2.609978,1.168527 2.609978,2.609978 z" id="connector9pad"/>
                                                                                            </g>
                                                                                            <g transform="translate(0.21091717,0)">
                                                                                                <circle cx="43.286144" cy="92.036003" gorn="0.1.0.0.0.0.0.0.0.0.3.0.0.0.0.0.0.0.0.0.22" stroke-width="1.79998505" stroke="#ffbf00" r="2.6099782" fill="none" d="m 45.896122,92.036003 c 0,1.441451 -1.168527,2.609978 -2.609978,2.609978 -1.441451,0 -2.609978,-1.168527 -2.609978,-2.609978 0,-1.441451 1.168527,-2.609978 2.609978,-2.609978 1.441451,0 2.609978,1.168527 2.609978,2.609978 z" id="connector10pad"/>
                                                                                            </g>
                                                                                            <g transform="translate(0.21091717,0)">
                                                                                                <circle cx="43.286144" cy="101.036" gorn="0.1.0.0.0.0.0.0.0.0.3.0.0.0.0.0.0.0.0.0.23" stroke-width="1.79998505" stroke="#ffbf00" r="2.6099782" fill="none" d="m 45.896122,101.036 c 0,1.44145 -1.168527,2.60998 -2.609978,2.60998 -1.441451,0 -2.609978,-1.16853 -2.609978,-2.60998 0,-1.441448 1.168527,-2.609975 2.609978,-2.609975 1.441451,0 2.609978,1.168527 2.609978,2.609975 z" id="connector11pad"/>
                                                                                            </g>
                                                                                            <g transform="translate(0.21091717,0)">
                                                                                                <circle cx="43.286144" cy="110.036" gorn="0.1.0.0.0.0.0.0.0.0.3.0.0.0.0.0.0.0.0.0.24" stroke-width="1.79998505" stroke="#ffbf00" r="2.6099782" fill="none" d="m 45.896122,110.036 c 0,1.44145 -1.168527,2.60998 -2.609978,2.60998 -1.441451,0 -2.609978,-1.16853 -2.609978,-2.60998 0,-1.44145 1.168527,-2.60998 2.609978,-2.60998 1.441451,0 2.609978,1.16853 2.609978,2.60998 z" id="connector12pad"/>
                                                                                            </g>
                                                                                            <g transform="translate(0.21091717,0)">
                                                                                                <circle cx="43.286144" cy="119.036" gorn="0.1.0.0.0.0.0.0.0.0.3.0.0.0.0.0.0.0.0.0.25" stroke-width="1.79998505" stroke="#ffbf00" r="2.6099782" fill="none" d="m 45.896122,119.036 c 0,1.44145 -1.168527,2.60998 -2.609978,2.60998 -1.441451,0 -2.609978,-1.16853 -2.609978,-2.60998 0,-1.44145 1.168527,-2.60998 2.609978,-2.60998 1.441451,0 2.609978,1.16853 2.609978,2.60998 z" id="connector13pad"/>
                                                                                            </g>
                                                                                            <g transform="translate(0.21091717,0)">
                                                                                                <circle cx="43.286144" cy="128.036" gorn="0.1.0.0.0.0.0.0.0.0.3.0.0.0.0.0.0.0.0.0.26" stroke-width="1.79998505" stroke="#ffbf00" r="2.6099782" fill="none" d="m 45.896122,128.036 c 0,1.44145 -1.168527,2.60997 -2.609978,2.60997 -1.441451,0 -2.609978,-1.16852 -2.609978,-2.60997 0,-1.44146 1.168527,-2.60998 2.609978,-2.60998 1.441451,0 2.609978,1.16852 2.609978,2.60998 z" id="connector14pad"/>
                                                                                            </g>
                                                                                            <g transform="translate(0.21091717,0)">
                                                                                                <circle cx="43.286144" cy="38.035999" gorn="0.1.0.0.0.0.0.0.0.0.3.0.0.0.0.0.0.0.0.0.27" stroke-width="1.79998505" stroke="#ffbf00" r="2.6099782" fill="none" d="m 45.896122,38.035999 c 0,1.441451 -1.168527,2.609978 -2.609978,2.609978 -1.441451,0 -2.609978,-1.168527 -2.609978,-2.609978 0,-1.441451 1.168527,-2.609978 2.609978,-2.609978 1.441451,0 2.609978,1.168527 2.609978,2.609978 z" id="connector4pad"/>
                                                                                            </g>
                                                                                            <g transform="translate(0.21091717,0)">
                                                                                                <circle cx="43.286144" cy="47.035999" gorn="0.1.0.0.0.0.0.0.0.0.3.0.0.0.0.0.0.0.0.0.28" stroke-width="1.79998505" stroke="#ffbf00" r="2.6099782" fill="none" d="m 45.896122,47.035999 c 0,1.441451 -1.168527,2.609978 -2.609978,2.609978 -1.441451,0 -2.609978,-1.168527 -2.609978,-2.609978 0,-1.441451 1.168527,-2.609978 2.609978,-2.609978 1.441451,0 2.609978,1.168527 2.609978,2.609978 z" id="connector5pad"/>
                                                                                            </g>
                                                                                            <g transform="translate(0.21091717,0)">
                                                                                                <circle cx="43.286144" cy="56.035999" gorn="0.1.0.0.0.0.0.0.0.0.3.0.0.0.0.0.0.0.0.0.29" stroke-width="1.79998505" stroke="#ffbf00" r="2.6099782" fill="none" d="m 45.896122,56.035999 c 0,1.441451 -1.168527,2.609978 -2.609978,2.609978 -1.441451,0 -2.609978,-1.168527 -2.609978,-2.609978 0,-1.441451 1.168527,-2.609978 2.609978,-2.609978 1.441451,0 2.609978,1.168527 2.609978,2.609978 z" id="connector6pad"/>
                                                                                            </g>
                                                                                        </g>
                                                                                    </g>
                                                                                </g>
                                                                            </g>
                                                                        </g>
                                                                    </g>
                                                                </g>
                                                            </g>
                                                        </g>
                                                    </g>
                                                </g>
                                            </g>
                                            <g transform="translate(0,26.078724)">
                                                <g id="g94">
                                                    <g id="g96">
                                                        <g id="g98">
                                                            <g id="g100">
                                                                <g id="g102">
                                                                    <g id="g104">
                                                                        <g id="g106">
                                                                            <g id="g108">
                                                                                <g gorn="0.1.0.0.0.0.0.0.0.0.4.0.0.0.0.0.0.0.0" id="keepout"/>
                                                                            </g>
                                                                        </g>
                                                                    </g>
                                                                </g>
                                                            </g>
                                                        </g>
                                                    </g>
                                                </g>
                                            </g>
                                            <g transform="translate(0,26.078724)">
                                                <g id="g111">
                                                    <g id="g113">
                                                        <g id="g115">
                                                            <g id="g117">
                                                                <g id="g119">
                                                                    <g id="g121">
                                                                        <g id="g123">
                                                                            <g id="g125">
                                                                                <g gorn="0.1.0.0.0.0.0.0.0.0.5.0.0.0.0.0.0.0.0" id="soldermask"/>
                                                                            </g>
                                                                        </g>
                                                                    </g>
                                                                </g>
                                                            </g>
                                                        </g>
                                                    </g>
                                                </g>
                                            </g>
                                            <g transform="translate(0,26.078724)">
                                                <g id="g128">
                                                    <g id="g130">
                                                        <g id="g132">
                                                            <g id="g134">
                                                                <g id="g136">
                                                                    <g id="g138">
                                                                        <g id="g140">
                                                                            <g id="g142">
                                                                                <g gorn="0.1.0.0.0.0.0.0.0.0.6.0.0.0.0.0.0.0.0" id="outline"/>
                                                                            </g>
                                                                        </g>
                                                                    </g>
                                                                </g>
                                                            </g>
                                                        </g>
                                                    </g>
                                                </g>
                                            </g>
                                        </g>
                                    </g>
                                </g>
                            </g>
                        </g>
                    </g>
                </g>
            </g>
        </g>
    </g>
</svg>
